<svg xmlns="http://www.w3.org/2000/svg" viewBox="0 0 250 350" width="250" height="350"><defs><linearGradient id="g" x1="0" y1="0" x2="0" y2="1"><stop offset="0" stop-color="#fffdf6"></stop><stop offset="1" stop-color="#f1ead9"></stop></linearGradient></defs><rect x="1" y="1" width="248" height="348" rx="20" fill="url(#g)" stroke="#d8cdb4" stroke-width="2"></rect><g transform="translate(125,200) scale(1.6667)"><path d="M0,45 C-18,22 -42,8 -42,-14 C-42,-32 -22,-40 -8,-28 C-4,-25 -1,-20 0,-16 C1,-20 4,-25 8,-28 C22,-40 42,-32 42,-14 C42,8 18,22 0,45 Z" fill="#b8242f"></path></g><text x="44" y="66" text-anchor="middle" font-family="Playfair Display, Georgia, serif" font-weight="700" font-size="72" fill="#b8242f">5</text><g transform="translate(44,104) scale(0.3333)"><path d="M0,45 C-18,22 -42,8 -42,-14 C-42,-32 -22,-40 -8,-28 C-4,-25 -1,-20 0,-16 C1,-20 4,-25 8,-28 C22,-40 42,-32 42,-14 C42,8 18,22 0,45 Z" fill="#b8242f"></path></g></svg>